# xmcd
#
# Track frame offsets: 
#        150
#        17808
#        31284
#        45650
#        63234
#        81251
#        99155
#        116915
#        136945
#        154848
#        173311
#        191853
#        213794
#        229283
#        251560
#        266260
#        283118
#        301313
#        320739
#        340104
#
# Disc length: 4700 seconds
#
# Revision: 0
# Processed by: cddbd v1.5.2PL0 Copyright (c) Steve Scherf et al.
# Submitted via: ExactAudioCopyFreeDBPlugin 1.0
#
DISCID=13125a14
DTITLE=Ruth Jacott - Alle 20 Goed - Ruth Jacott
DYEAR=2012
DGENRE=Vocal
TTITLE0=Onderweg Naar Morgen
TTITLE1=Ruth Jacott - Paul de Leeuw - Blijf Bij Mij
TTITLE2=Hartslag
TTITLE3=De Zon Voor De Maan
TTITLE4=Liefde Of Lust
TTITLE5=Ik Kan Echt Zonder Jou
TTITLE6=Leun Op Mij
TTITLE7=Buseruka
TTITLE8=Vrij Met Mij
TTITLE9=Kippevel
TTITLE10=Altijd Dichtbij
TTITLE11=Hou Me Vast
TTITLE12=Rad Van Fortuin
TTITLE13=Ruth Jacott - Marco Borsato - Rene Froger - You've Got A Friend
TTITLE14=Vrede
TTITLE15=Ik Ga Door
TTITLE16=Oorlogskind
TTITLE17=Kruimeltje
TTITLE18=Vind Je Niet
TTITLE19=Jij Doet Iets Met Mij
EXTD=
EXTT0=
EXTT1=
EXTT2=
EXTT3=
EXTT4=
EXTT5=
EXTT6=
EXTT7=
EXTT8=
EXTT9=
EXTT10=
EXTT11=
EXTT12=
EXTT13=
EXTT14=
EXTT15=
EXTT16=
EXTT17=
EXTT18=
EXTT19=
PLAYORDER=
